<svg width="33" height="26" viewBox="0 0 33 26" fill="none" xmlns="http://www.w3.org/2000/svg">
<path opacity="0.2" d="M10.8628 25.9971C22.9264 25.9971 29.5302 15.9916 29.5302 7.32959C29.5302 7.04798 29.5302 6.76717 29.5175 6.48556C30.803 5.55394 31.9122 4.40071 32.7931 3.07995C31.5936 3.60979 30.3223 3.95927 29.0205 4.11703C30.3922 3.29583 31.4193 2.0046 31.9108 0.483251C30.6215 1.24816 29.2101 1.78519 27.7385 2.07078C26.8387 1.11078 25.671 0.443573 24.3872 0.155837C23.1033 -0.131899 21.7625 -0.0268576 20.5391 0.457313C19.3157 0.941484 18.2661 1.7824 17.5269 2.87081C16.7876 3.95922 16.3927 5.24481 16.3936 6.56055C16.3968 7.06382 16.4524 7.56539 16.5595 8.05714C13.9503 7.92576 11.3979 7.24705 9.0681 6.06509C6.73826 4.88312 4.68307 3.22434 3.03599 1.19644C2.19877 2.64236 1.94312 4.35268 2.32093 5.98022C2.69873 7.60776 3.68169 9.03055 5.07027 9.95979C4.02884 9.9261 3.00999 9.64761 2.09623 9.14688V9.23622C2.09803 10.7513 2.62301 12.2193 3.5824 13.3919C4.54178 14.5646 5.8767 15.3699 7.36142 15.6717C6.79918 15.8269 6.21834 15.9045 5.63508 15.9023C5.22204 15.9033 4.80985 15.8649 4.40414 15.7874C4.82223 17.0908 5.63757 18.2308 6.73595 19.0476C7.83433 19.8645 9.16072 20.3173 10.5293 20.3426C8.20605 22.1691 5.33551 23.1602 2.38023 23.1563C1.85873 23.1585 1.3376 23.1284 0.819824 23.0661C3.81993 24.9803 7.30482 25.9967 10.8636 25.9955" fill="black"/>
</svg>
